<svg xmlns="http://www.w3.org/2000/svg" viewBox="0 0 898.83 425"><defs><style>.a{fill:#94969a;}.b{fill:none;}.c{fill:#ce1628;}</style></defs><title>logo</title><path class="a" d="M55.8,324c-12.1-23.6-17.4-31.1-5-83,2.7-11.5,15-39,15-39l23-45,37-69a336.71,336.71,0,0,0,18-43c5.1-15.1,10.3-36.5,10-45a352.1,352.1,0,0,1-13,40c-7.3,17.9-17.7,32.9-20,37-11.4,19.9-43.3,60.8-58,81s-47.1,69-53,85c-30.9,84.4,14.9,110.4,84,132,33,12.9,129,48,129,48l-87-42S67.9,347.6,55.8,324Z" transform="translate(0.03)"/><path class="b" d="M450.8,119c-2.3-.5-11,0-11,0v13h11a6,6,0,0,0,5-6C455.9,120.8,453.1,119.5,450.8,119Z" transform="translate(0.03)"/><path class="b" d="M503.9,100.9c-4.6-.1-8.1,5.3-8.7,6.2a16.44,16.44,0,0,0-2.2,11.7c.1,5.1,2.3,9.5,5.9,11.2a11.79,11.79,0,0,0,4.9,1h0a12.44,12.44,0,0,0,5.3-1.9c3.6-2.3,5.5-7.9,4.8-14C513.5,106.7,508.5,101,503.9,100.9Z" transform="translate(0.03)"/><path class="b" d="M450.8,119c-2.3-.5-11,0-11,0v13h11a6,6,0,0,0,5-6C455.9,120.8,453.1,119.5,450.8,119Z" transform="translate(0.03)"/><path class="c" d="M452.8,113a94,94,0,0,0-13,0V103h21V96h-29v42h23s10.2-2.3,10-12S458.3,113.6,452.8,113Zm-2,19h-11V119s8.7-.5,11,0,5.1,1.8,5,7A6,6,0,0,1,450.8,132Z" transform="translate(0.03)"/><path class="b" d="M562.8,102h-10v12h10s4.8-1.2,5-6S562.8,102,562.8,102Z" transform="translate(0.03)"/><path class="c" d="M564.8,95h-21v43h9V121h11s11.7-2.8,12-13S564.8,95,564.8,95Zm-2,19h-10V102h10s5.2,1.2,5,6S562.8,114,562.8,114Z" transform="translate(0.03)"/><path class="b" d="M609.8,105l-5,15h9Z" transform="translate(0.03)"/><path class="c" d="M614.8,95h-9l-14,43h8l3-11h13l3,11h10Zm-10,25,5-15,4,15Z" transform="translate(0.03)"/><path class="c" d="M749.8,95h21s11.3,2.8,11,13-12,13-12,13h-11v17h-9Zm9,8v11h10s4.8-1.2,5-6-5-6-5-6h-10Z" transform="translate(0.03)"/><path class="b" d="M865.8,108c0,3.6,4,5,4,5h12V102h-12S865.8,104.4,865.8,108Z" transform="translate(0.03)"/><path class="c" d="M868.8,95s-11.4,3.6-11,12,4.9,10.9,9,13c0,.1-11,18-11,18h10l10-17h6v17h9V95Zm13,8v10h-12s-4-1.4-4-5,4-6,4-6h12Z" transform="translate(0.03)"/><polygon class="c" points="826.83 99 810.83 121 810.83 95 801.83 95 801.83 138 811.83 138 811.83 133 826.83 112 826.83 138 835.83 138 835.83 95 826.83 95 826.83 99"/><path class="b" d="M368.8,204l-28,66v2h57v-2Z" transform="translate(0.03)"/><polygon class="b" points="340.83 270 340.83 272 397.83 272 397.83 270 368.83 204 340.83 270"/><polygon class="c" points="642.83 95 642.83 102 653.83 102 653.83 138 662.83 138 662.83 102 673.83 102 673.83 95 642.83 95"/><path class="c" d="M372.8,170h-9l-44,102h-11v35h19V290h83v17h19V272h-10Zm25,102h-57v-2l28-66,29,66Z" transform="translate(0.03)"/><polygon class="c" points="505.83 217 454.83 217 454.83 170 436.83 170 436.83 290 454.83 290 454.83 235 505.83 235 505.83 290 523.83 290 523.83 170 505.83 170 505.83 217"/><polygon class="c" points="625.83 170 600.83 170 560.83 207 560.83 170 542.83 170 542.83 290 560.83 290 560.83 242 605.83 290 629.83 290 568.83 224 625.83 170"/><circle class="b" cx="691.83" cy="230" r="45"/><circle class="b" cx="691.83" cy="230" r="45"/><path class="c" d="M691.8,167c-34.8,0-63,28-63,62.5S657,292,691.8,292s63-28,63-62.5S726.6,167,691.8,167Zm0,108a45,45,0,1,1,45-45A44.94,44.94,0,0,1,691.8,275Z" transform="translate(0.03)"/><polygon class="c" points="880.83 170 874.83 170 830.83 258 786.83 170 780.83 170 763.83 290 780.83 290 790.83 217 827.83 289 834.83 289 870.83 217 880.83 290 898.83 290 880.83 170"/><circle class="c" cx="240.8" cy="230" r="35" transform="translate(-24.78 430.85) rotate(-80.78)"/><path class="a" d="M95.8,171h78a5,5,0,0,1,5,5v7a5,5,0,0,1-5,5h-78a5,5,0,0,1-5-5v-7A5,5,0,0,1,95.8,171Z" transform="translate(0.03)"/><path class="a" d="M62.8,272h111a5,5,0,0,1,5,5v7a5,5,0,0,1-5,5H62.8a5,5,0,0,1-5-5v-7A5,5,0,0,1,62.8,272Z" transform="translate(0.03)"/><path class="a" d="M80.8,317h56a5,5,0,0,1,5,5v7a5,5,0,0,1-5,5h-56a5,5,0,0,1-5-5v-7A5,5,0,0,1,80.8,317Z" transform="translate(0.03)"/><path class="c" d="M72.8,223h115a5,5,0,0,1,5,5v7a5,5,0,0,1-5,5H72.8a5,5,0,0,1-5-5v-7A5,5,0,0,1,72.8,223Z" transform="translate(0.03)"/><circle class="a" cx="217.33" cy="162.5" r="28.5"/><circle class="a" cx="221.33" cy="298.5" r="28.5"/><ellipse class="a" cx="181.33" cy="336" rx="18.5" ry="18"/><ellipse class="a" cx="147.83" cy="361.5" rx="15" ry="14.5"/><ellipse class="a" cx="181.33" cy="120" rx="18.5" ry="18"/><ellipse class="a" cx="148.83" cy="91.5" rx="15" ry="14.5"/><circle class="a" cx="101.83" cy="399" r="11"/><circle class="a" cx="107.83" cy="58" r="10"/><circle class="a" cx="84.33" cy="38.5" r="7.5"/><circle class="a" cx="61.83" cy="24" r="5"/><circle class="a" cx="74.33" cy="417.5" r="7.5"/><path class="c" d="M397.8,96h-9l-13,42h7l4-10h13l3,10h9Zm-9,25,5-16,4,16Z" transform="translate(0.03)"/><path class="c" d="M327.8,123c-1.5,9.4-7,9-7,9v6c0-.1,1.3,0,5,0a13.2,13.2,0,0,0,8-8c2.39-6.4,2-27,2-27h12v35h8V97h-27S328.6,114.76,327.8,123Z" transform="translate(0.03)"/><path class="c" d="M710.31,95c-10.22,0-18.51,9.86-18.51,22s8.29,22,18.51,22,18.51-9.85,18.51-22S720.53,95,710.31,95Zm0,37.07c-5.73,0-10.37-6.74-10.37-15S704.58,102,710.31,102s10.37,6.74,10.37,15.06S716,132.07,710.31,132.07Z" transform="translate(0.03)"/><ellipse class="b" cx="710.34" cy="117.02" rx="10.37" ry="15.05"/><path class="c" d="M502.31,95.48c-10.22,0-18.51,9.86-18.51,22s8.29,22,18.51,22,18.51-9.86,18.51-22S512.53,95.48,502.31,95.48Zm0,37.07c-5.73,0-10.37-6.74-10.37-15.05s4.64-15,10.37-15,10.37,6.74,10.37,15S508,132.55,502.31,132.55Z" transform="translate(0.03)"/><ellipse class="b" cx="502.34" cy="117.5" rx="10.37" ry="15.05"/></svg>